<svg width="24" height="25" viewBox="0 0 24 25" fill="none" xmlns="http://www.w3.org/2000/svg">
<path d="M13.6032 0.820786C13.1627 0.425001 12.5914 0.206055 11.9992 0.206055C11.4071 0.206055 10.8358 0.425001 10.3952 0.820786L1.59525 8.72799C1.34505 8.95299 1.14495 9.22809 1.00796 9.53543C0.870961 9.84278 0.800126 10.1755 0.800049 10.512V21.8C0.800049 22.4365 1.05291 23.047 1.50299 23.497C1.95308 23.9471 2.56353 24.2 3.20005 24.2H6.40005C7.03657 24.2 7.64702 23.9471 8.09711 23.497C8.54719 23.047 8.80005 22.4365 8.80005 21.8V15.4C8.80005 15.1878 8.88433 14.9843 9.03436 14.8343C9.18439 14.6843 9.38788 14.6 9.60005 14.6H14.4C14.6122 14.6 14.8157 14.6843 14.9657 14.8343C15.1158 14.9843 15.2 15.1878 15.2 15.4V21.8C15.2 22.4365 15.4529 23.047 15.903 23.497C16.3531 23.9471 16.9635 24.2 17.6 24.2H20.8C21.4366 24.2 22.047 23.9471 22.4971 23.497C22.9472 23.047 23.2 22.4365 23.2 21.8V10.512C23.2 10.1755 23.1291 9.84278 22.9921 9.53543C22.8551 9.22809 22.6551 8.95299 22.4049 8.72799L13.6048 0.820786H13.6032Z" fill="#481237"/>
</svg>
