<svg width="24" height="24" viewBox="0 0 24 24" fill="none" xmlns="http://www.w3.org/2000/svg">
<path d="M22.9772 8.50315L20.9086 6.43456C20.7417 6.26992 20.5192 6.17378 20.2849 6.1651C20.0506 6.15642 19.8216 6.23584 19.643 6.38769C19.3672 6.62241 19.0134 6.74496 18.6515 6.73107C18.2896 6.71718 17.9462 6.56785 17.6892 6.31269C17.4342 6.05576 17.285 5.71241 17.2711 5.35066C17.2572 4.98891 17.3797 4.63513 17.6142 4.3594C17.7661 4.18079 17.8455 3.95176 17.8368 3.71748C17.8282 3.4832 17.732 3.26067 17.5674 3.09378L15.4969 1.02284C15.3219 0.848204 15.0848 0.750122 14.8376 0.750122C14.5904 0.750122 14.3533 0.848204 14.1783 1.02284L10.8807 4.32003C10.6771 4.52435 10.5235 4.77303 10.4321 5.04659C10.4143 5.09919 10.3846 5.14697 10.3453 5.18624C10.306 5.2255 10.2582 5.25519 10.2057 5.273C9.93198 5.36445 9.68327 5.51817 9.47909 5.72206L1.02284 14.1783C0.848204 14.3533 0.750122 14.5904 0.750122 14.8376C0.750122 15.0848 0.848204 15.3219 1.02284 15.4969L3.09378 17.5655C3.26067 17.7301 3.4832 17.8263 3.71748 17.835C3.95176 17.8436 4.18079 17.7642 4.3594 17.6124C4.63451 17.3758 4.98887 17.2518 5.35147 17.2655C5.71408 17.2791 6.05815 17.4292 6.31473 17.6858C6.57132 17.9424 6.72146 18.2864 6.73507 18.6491C6.74869 19.0117 6.62477 19.366 6.38815 19.6411C6.23631 19.8197 6.15689 20.0488 6.16557 20.283C6.17424 20.5173 6.27038 20.7399 6.43503 20.9067L8.50362 22.9753C8.6786 23.15 8.91571 23.2481 9.16292 23.2481C9.41013 23.2481 9.64724 23.15 9.82222 22.9753L18.2785 14.5191C18.4822 14.315 18.6359 14.0665 18.7275 13.793C18.7453 13.7402 18.775 13.6923 18.8143 13.6529C18.8537 13.6136 18.9016 13.5839 18.9544 13.5661C19.2278 13.4746 19.4763 13.3211 19.6805 13.1175L22.9777 9.81987C23.1517 9.64492 23.2493 9.40817 23.2492 9.16142C23.2491 8.91466 23.1513 8.67799 22.9772 8.50315ZM12.2724 7.11331C12.2027 7.18297 12.12 7.23823 12.029 7.27593C11.938 7.31364 11.8405 7.33304 11.742 7.33304C11.6435 7.33304 11.5459 7.31364 11.4549 7.27593C11.3639 7.23823 11.2812 7.18297 11.2116 7.11331L10.6721 6.57378C10.5348 6.43242 10.4587 6.24274 10.4602 6.04573C10.4617 5.84872 10.5406 5.66021 10.68 5.52093C10.8193 5.38165 11.0079 5.30279 11.2049 5.30139C11.4019 5.3 11.5915 5.37618 11.7328 5.51347L12.2724 6.05253C12.342 6.12218 12.3973 6.20486 12.435 6.29587C12.4727 6.38687 12.4921 6.48441 12.4921 6.58292C12.4921 6.68143 12.4727 6.77897 12.435 6.86997C12.3973 6.96098 12.342 7.04366 12.2724 7.11331ZM14.3349 9.17581C14.1942 9.31636 14.0035 9.39531 13.8047 9.39531C13.6059 9.39531 13.4152 9.31636 13.2746 9.17581L12.7589 8.66019C12.6893 8.59053 12.634 8.50784 12.5963 8.41684C12.5586 8.32584 12.5392 8.2283 12.5392 8.12979C12.5392 8.03129 12.5586 7.93375 12.5963 7.84275C12.634 7.75175 12.6893 7.66906 12.7589 7.5994C12.8996 7.45874 13.0904 7.37971 13.2893 7.37971C13.3878 7.37971 13.4854 7.39911 13.5764 7.43681C13.6674 7.4745 13.7501 7.52975 13.8197 7.5994L14.3353 8.11503C14.4052 8.18467 14.4607 8.26742 14.4986 8.35854C14.5365 8.44966 14.556 8.54735 14.556 8.64603C14.5561 8.7447 14.5366 8.84241 14.4988 8.93356C14.4611 9.02471 14.4057 9.10751 14.3358 9.17722L14.3349 9.17581ZM16.3974 11.2383C16.3277 11.308 16.245 11.3632 16.154 11.4009C16.063 11.4386 15.9655 11.458 15.867 11.458C15.7685 11.458 15.6709 11.4386 15.5799 11.4009C15.4889 11.3632 15.4062 11.308 15.3366 11.2383L14.821 10.7227C14.6837 10.5813 14.6076 10.3916 14.6091 10.1946C14.6106 9.99763 14.6896 9.80911 14.8289 9.66983C14.9682 9.53055 15.1568 9.4517 15.3538 9.4503C15.5508 9.4489 15.7404 9.52508 15.8817 9.66237L16.3974 10.178C16.4675 10.2475 16.5232 10.3302 16.5612 10.4213C16.5993 10.5124 16.619 10.6101 16.6192 10.7088C16.6194 10.8076 16.6002 10.9054 16.5625 10.9966C16.5248 11.0879 16.4695 11.1708 16.3997 11.2407L16.3974 11.2383ZM18.48 13.3261C18.4104 13.3958 18.3277 13.451 18.2367 13.4887C18.1457 13.5264 18.0481 13.5459 17.9496 13.5459C17.8511 13.5459 17.7536 13.5264 17.6626 13.4887C17.5716 13.451 17.4889 13.3958 17.4192 13.3261L16.883 12.7871C16.8119 12.7176 16.7553 12.6347 16.7165 12.5432C16.6776 12.4517 16.6574 12.3534 16.6569 12.254C16.6565 12.1546 16.6758 12.0561 16.7137 11.9642C16.7516 11.8723 16.8074 11.7889 16.8779 11.7188C16.9484 11.6487 17.032 11.5933 17.1241 11.5558C17.2162 11.5183 17.3148 11.4995 17.4142 11.5004C17.5136 11.5014 17.6118 11.5221 17.7031 11.5614C17.7944 11.6006 17.877 11.6576 17.9461 11.7291L18.4828 12.2677C18.5525 12.3374 18.6077 12.4201 18.6454 12.5111C18.683 12.6021 18.7024 12.6997 18.7023 12.7982C18.7023 12.8967 18.6828 12.9942 18.6451 13.0852C18.6074 13.1762 18.5521 13.2589 18.4824 13.3285L18.48 13.3261Z" fill="#481237"/>
</svg>
