<svg width="22" height="24" viewBox="0 0 22 24" fill="none" xmlns="http://www.w3.org/2000/svg">
<path d="M20.815 4.6412C20.7252 4.53857 20.6151 4.45559 20.4917 4.39746C20.3683 4.33933 20.2342 4.30729 20.0978 4.30335C17.9794 4.24797 15.2987 1.98274 13.5264 1.09381C12.4317 0.54643 11.7089 0.185507 11.1661 0.09043C11.0559 0.0743708 10.9439 0.0746819 10.8338 0.0913531C10.291 0.18643 9.56828 0.547353 8.47443 1.09474C6.70212 1.98274 4.02151 4.24797 1.90304 4.30335C1.76659 4.30749 1.63243 4.33962 1.5089 4.39773C1.38536 4.45585 1.27508 4.53871 1.18489 4.6412C0.997943 4.85271 0.901487 5.12915 0.916275 5.41105C1.37135 14.663 4.68981 20.3889 10.5126 23.7166C10.664 23.8024 10.832 23.8467 10.999 23.8467C11.1661 23.8467 11.3341 23.8024 11.4864 23.7166C17.3092 20.3889 20.6267 14.663 21.0827 5.41105C21.0984 5.12919 21.0022 4.85254 20.815 4.6412ZM16.1849 8.27997L11.2714 15.5307C11.095 15.791 10.8181 15.9637 10.544 15.9637C10.2689 15.9637 9.96335 15.8132 9.77043 15.6203L6.30704 12.156C6.19397 12.0425 6.13048 11.8888 6.13048 11.7286C6.13048 11.5684 6.19397 11.4147 6.30704 11.3012L7.16274 10.4437C7.27647 10.331 7.43006 10.2679 7.59012 10.2679C7.75018 10.2679 7.90378 10.331 8.01751 10.4437L10.2698 12.696L14.1827 6.92028C14.2733 6.78811 14.4124 6.69713 14.5698 6.66721C14.7272 6.63729 14.89 6.67086 15.0227 6.76058L16.0243 7.43997C16.1566 7.53036 16.2478 7.66945 16.2779 7.82684C16.3079 7.98423 16.2745 8.14714 16.1849 8.27997Z" fill="#481237"/>
</svg>
