<svg width="144" height="144" viewBox="0 0 144 144" fill="none" xmlns="http://www.w3.org/2000/svg">
<circle cx="72" cy="72" r="72" fill="#58C960"/>
<path fill-rule="evenodd" clip-rule="evenodd" d="M116.315 40.6804C117.394 41.7567 118 43.2162 118 44.7381C118 46.26 117.394 47.7195 116.315 48.7958L61.6474 103.32C60.5683 104.396 59.1049 105 57.579 105C56.0531 105 54.5897 104.396 53.5106 103.32L27.6154 77.4925C26.5671 76.4101 25.9871 74.9603 26.0002 73.4555C26.0133 71.9507 26.6185 70.5112 27.6855 69.447C28.7524 68.3829 30.1957 67.7793 31.7045 67.7662C33.2133 67.7532 34.6669 68.3317 35.7522 69.3771L57.579 91.1465L108.178 40.6804C109.257 39.6044 110.721 39 112.247 39C113.773 39 115.236 39.6044 116.315 40.6804Z" fill="white"/>
</svg>
