<svg width="92" height="66" viewBox="0 0 92 66" fill="none" xmlns="http://www.w3.org/2000/svg">
<path fill-rule="evenodd" clip-rule="evenodd" d="M90.3152 1.6804C91.394 2.75669 92 4.21625 92 5.73812C92 7.25999 91.394 8.71955 90.3152 9.79583L35.6474 64.3196C34.5683 65.3956 33.1049 66 31.579 66C30.0531 66 28.5897 65.3956 27.5106 64.3196L1.61536 38.4925C0.56713 37.4101 -0.0128936 35.9603 0.000217534 34.4555C0.0133287 32.9507 0.618524 31.5112 1.68545 30.447C2.75238 29.3829 4.19568 28.7793 5.70449 28.7662C7.2133 28.7532 8.6669 29.3317 9.75221 30.3771L31.579 52.1465L82.1783 1.6804C83.2574 0.604442 84.7208 0 86.2467 0C87.7726 0 89.236 0.604442 90.3152 1.6804Z" fill="white"/>
</svg>
